:FULLY-SPECIFIED
:FORCE-ALL-JOINTS-BE-3DOF
:DEGREES
951
root 1.15561 15.2773 32.7329 6.96896 -3.70324 364.821
lfemur 7.48569 1.51993 4.07095
ltibia -0.183179 0 0
lfoot -30.0302 -12.3296 0
ltoes -34.48 0 0
rfemur -32.4308 -16.6721 -7.24715
rtibia 49.7597 0 0
rfoot -22.0864 5.27984 0
rtoes -42.1823 0 0
lowerback -2.15462 -0.403062 0.880925
upperback -1.46742 -0.569222 -6.83947
thorax -0.384671 -0.327938 -7.64269
lowerneck -6.57565 0.702491 4.76287
upperneck 0.751675 0.475562 3.20542
head 1.33005 0.322346 0.211028
lclavicle -6.02717e-15 -2.54794e-14 0
lhumerus -59.4565 -44.2444 113.22
lradius 55.3279 0 0
lwrist 25.6298 0 0
lhand 39.7478 24.513 0
lfingers 7.12502 0 0
lthumb 62.1867 35.7777 0
rclavicle -6.02717e-15 -2.54794e-14 0
rhumerus 7.63248 -40.1124 2.8399
rradius 23.1436 0 0
rwrist -16.6617 0 0
rhand -43.138 -52.4992 0
rfingers 7.12502 0 0
rthumb -15.9612 -802.603 0
952
root 1.14859 15.2682 32.7256 6.94711 -3.88896 364.788
lfemur 7.63899 1.67791 4.15194
ltibia -0.22989 0 0
lfoot -30.2003 -12.0822 0
ltoes -34.7571 0 0
rfemur -32.6576 -16.7798 -7.1331
rtibia 49.9731 0 0
rfoot -22.3221 5.48901 0
rtoes -42.069 0 0
lowerback -2.1162 -0.411463 0.900084
upperback -1.44812 -0.581294 -6.7968
thorax -0.387444 -0.333687 -7.60763
lowerneck -6.5483 0.759885 4.85775
upperneck 0.678663 0.549905 3.19874
head 1.30198 0.357207 0.195067
lclavicle -3.71003e-15 -2.0961e-14 0
lhumerus -59.4356 -44.249 113.326
lradius 55.2723 0 0
lwrist 25.6466 0 0
lhand 39.5866 24.5255 0
lfingers 7.12502 0 0
lthumb 62.0522 35.9567 0
rclavicle -3.71003e-15 -2.0961e-14 0
rhumerus 7.92158 -39.9228 3.32633
rradius 22.7885 0 0
rwrist -16.5173 0 0
rhand -42.9536 -52.4904 0
rfingers 7.12502 0 0
rthumb -15.7814 -802.639 0
953
root 1.14158 15.259 32.7182 6.91685 -4.06686 364.752
lfemur 7.77975 1.82543 4.23504
ltibia -0.259208 0 0
lfoot -30.3211 -11.9086 0
ltoes -34.9261 0 0
rfemur -32.8692 -16.8568 -7.02148
rtibia 50.1745 0 0
rfoot -22.514 5.6774 0
rtoes -41.9596 0 0
lowerback -2.07807 -0.420597 0.911076
upperback -1.42734 -0.593967 -6.75227
thorax -0.388492 -0.339621 -7.56585
lowerneck -6.52042 0.813277 4.94689
upperneck 0.609238 0.619012 3.19867
head 1.27541 0.38961 0.182015
lclavicle -1.23223e-15 -1.60794e-14 0
lhumerus -59.3976 -44.2387 113.422
lradius 55.2195 0 0
lwrist 25.6446 0 0
lhand 39.4263 24.5468 0
lfingers 7.12502 0 0
lthumb 61.918 36.1414 0
rclavicle -1.23223e-15 -1.60794e-14 0
rhumerus 8.06106 -39.4889 3.63909
rradius 22.6532 0 0
rwrist -16.3339 0 0
rhand -42.5814 -52.369 0
rfingers 7.12502 0 0
rthumb -15.4217 -802.546 0
954
root 1.13456 15.2499 32.7109 6.87919 -4.23679 364.715
lfemur 7.90879 1.96277 4.31955
ltibia -0.273197 0 0
lfoot -30.3984 -11.8 0
ltoes -35.0002 0 0
rfemur -33.066 -16.9065 -6.91262
rtibia 50.3642 0 0
rfoot -22.6666 5.84624 0
rtoes -41.8543 0 0
lowerback -2.04037 -0.430283 0.914865
upperback -1.40528 -0.607041 -6.70625
thorax -0.387945 -0.345652 -7.51833
lowerneck -6.49235 0.862882 5.0306
upperneck 0.543565 0.683144 3.20435
head 1.25039 0.419687 0.171561
lclavicle 1.36375e-15 -1.09166e-14 0
lhumerus -59.3447 -44.2157 113.508
lradius 55.1697 0 0
lwrist 25.6263 0 0
lhand 39.2674 24.5754 0
lfingers 7.12502 0 0
lthumb 61.7848 36.3302 0
rclavicle 1.36375e-15 -1.09166e-14 0
rhumerus 8.06907 -38.8436 3.7984
rradius 22.7103 0 0
rwrist -16.1169 0 0
rhand -42.0471 -52.1494 0
rfingers 7.12502 0 0
rthumb -14.9067 -802.339 0
955
root 1.12754 15.2407 32.7035 6.83513 -4.39859 364.676
lfemur 8.02696 2.0902 4.40477
ltibia -0.273925 0 0
lfoot -30.4376 -11.7479 0
ltoes -34.9923 0 0
rfemur -33.2485 -16.9321 -6.80686
rtibia 50.5424 0 0
rfoot -22.7843 5.99674 0
rtoes -41.7536 0 0
lowerback -2.0032 -0.440343 0.912416
upperback -1.38214 -0.620317 -6.65914
thorax -0.385935 -0.351694 -7.46605
lowerneck -6.46443 0.908916 5.10917
upperneck 0.481811 0.742563 3.21494
head 1.22698 0.447568 0.163395
lclavicle 4.03544e-15 -5.55434e-15 0
lhumerus -59.2793 -44.1823 113.585
lradius 55.1226 0 0
lwrist 25.594 0 0
lhand 39.1106 24.6101 0
lfingers 7.12502 0 0
lthumb 61.6531 36.5212 0
rclavicle 4.03544e-15 -5.55434e-15 0
rhumerus 7.96378 -38.0198 3.82446
rradius 22.9324 0 0
rwrist -15.8719 0 0
rhand -41.3764 -51.8459 0
rfingers 7.12502 0 0
rthumb -14.2611 -802.035 0
956
root 1.12052 15.2316 32.6962 6.78568 -4.55211 364.636
lfemur 8.1351 2.20801 4.48999
ltibia -0.263455 0 0
lfoot -30.4447 -11.7436 0
ltoes -34.9155 0 0
rfemur -33.4171 -16.9368 -6.70456
rtibia 50.7091 0 0
rfoot -22.8716 6.13015 0
rtoes -41.6578 0 0
lowerback -1.96668 -0.450596 0.904695
upperback -1.35813 -0.633596 -6.61134
thorax -0.382595 -0.357661 -7.40999
lowerneck -6.437 0.951593 5.18288
upperneck 0.424142 0.79753 3.22958
head 1.20523 0.473385 0.157204
lclavicle 6.74035e-15 -7.4659e-17 0
lhumerus -59.2038 -44.1407 113.655
lradius 55.0784 0 0
lwrist 25.5501 0 0
lhand 38.9565 24.6493 0
lfingers 7.12502 0 0
lthumb 61.5234 36.7128 0
rclavicle 6.74035e-15 -7.4659e-17 0
rhumerus 7.76335 -37.0505 3.73748
rradius 23.292 0 0
rwrist -15.6044 0 0
rhand -40.5949 -51.4729 0
rfingers 7.12502 0 0
rthumb -13.5093 -801.651 0
957
root 1.11351 15.2224 32.6888 6.73185 -4.69718 364.595
lfemur 8.23405 2.31646 4.57451
ltibia -0.243853 0 0
lfoot -30.4251 -11.7782 0
ltoes -34.7828 0 0
rfemur -33.5723 -16.924 -6.60604
rtibia 50.8647 0 0
rfoot -22.9332 6.24769 0
rtoes -41.5673 0 0
lowerback -1.93093 -0.460863 0.892667
upperback -1.33344 -0.646678 -6.56324
thorax -0.378057 -0.363464 -7.35113
lowerneck -6.41038 0.991129 5.25204
upperneck 0.370725 0.848307 3.24741
head 1.18519 0.49727 0.152678
lclavicle 9.436e-15 5.44057e-15 0
lhumerus -59.1205 -44.0933 113.718
lradius 55.0369 0 0
lwrist 25.4971 0 0
lhand 38.8057 24.6919 0
lfingers 7.12502 0 0
lthumb 61.3963 36.9032 0
rclavicle 9.436e-15 5.44057e-15 0
rhumerus 7.48596 -35.9688 3.55768
rradius 23.7616 0 0
rwrist -15.3198 0 0
rhand -39.7283 -51.0448 0
rfingers 7.12502 0 0
rthumb -12.6761 -801.203 0
958
root 1.10649 15.2133 32.6815 6.67463 -4.83366 364.554
lfemur 8.32463 2.41584 4.65762
ltibia -0.217186 0 0
lfoot -30.3847 -11.8433 0
ltoes -34.6074 0 0
rfemur -33.7145 -16.8969 -6.51166
rtibia 51.0094 0 0
rfoot -22.9734 6.35059 0
rtoes -41.4825 0 0
lowerback -1.89608 -0.470962 0.877296
upperback -1.30828 -0.659366 -6.51523
thorax -0.372451 -0.369019 -7.29044
lowerneck -6.38492 1.02774 5.31692
upperneck 0.321726 0.895155 3.26758
head 1.16692 0.519355 0.149505
lclavicle 1.20799e-14 1.09094e-14 0
lhumerus -59.0319 -44.0424 113.775
lradius 54.9982 0 0
lwrist 25.4372 0 0
lhand 38.6588 24.7363 0
lfingers 7.12502 0 0
lthumb 61.2723 37.0906 0
rclavicle 1.20799e-14 1.09094e-14 0
rhumerus 7.14977 -34.8075 3.30527
rradius 24.314 0 0
rwrist -15.0238 0 0
rhand -38.8022 -50.5759 0
rfingers 7.12502 0 0
rthumb -11.786 -800.707 0
959
root 1.09947 15.2041 32.6741 6.61504 -4.96139 364.514
lfemur 8.4077 2.50643 4.73862
ltibia -0.185517 0 0
lfoot -30.3291 -11.9301 0
ltoes -34.4024 0 0
rfemur -33.8442 -16.8589 -6.42176
rtibia 51.1433 0 0
rfoot -22.9968 6.44008 0
rtoes -41.4037 0 0
lowerback -1.86224 -0.480715 0.859548
upperback -1.28285 -0.671459 -6.46771
thorax -0.365911 -0.374237 -7.22891
lowerneck -6.36095 1.06164 5.37783
upperneck 0.277311 0.938336 3.28923
head 1.15046 0.539769 0.147375
lclavicle 1.46296e-14 1.625e-14 0
lhumerus -58.9401 -43.9902 113.828
lradius 54.9621 0 0
lwrist 25.373 0 0
lhand 38.5165 24.7813 0
lfingers 7.12502 0 0
lthumb 61.1521 37.2734 0
rclavicle 1.46296e-14 1.625e-14 0
rhumerus 6.77294 -33.5998 3.00046
rradius 24.9216 0 0
rwrist -14.7218 0 0
rhand -37.8424 -50.0806 0
rfingers 7.12502 0 0
rthumb -10.8636 -800.18 0
960
root 1.09245 15.195 32.6668 6.55408 -5.08021 364.474
lfemur 8.48408 2.58849 4.8168
ltibia -0.150913 0 0
lfoot -30.264 -12.0298 0
ltoes -34.1806 0 0
rfemur -33.9618 -16.8131 -6.33667
rtibia 51.2666 0 0
rfoot -23.0079 6.51739 0
rtoes -41.3313 0 0
lowerback -1.82952 -0.489941 0.840388
upperback -1.25735 -0.682759 -6.42106
thorax -0.358568 -0.379033 -7.16752
lowerneck -6.33881 1.09304 5.43506
upperneck 0.237648 0.978111 3.31151
head 1.13588 0.558645 0.145977
lclavicle 1.70426e-14 2.13804e-14 0
lhumerus -58.8477 -43.939 113.878
lradius 54.9288 0 0
lwrist 25.3067 0 0
lhand 38.3793 24.8254 0
lfingers 7.12502 0 0
lthumb 61.0361 37.4497 0
rclavicle 1.70426e-14 2.13804e-14 0
rhumerus 6.37363 -32.3784 2.66345
rradius 25.557 0 0
rwrist -14.4193 0 0
rhand -36.8744 -49.5733 0
rfingers 7.12502 0 0
rthumb -9.93356 -799.638 0
